<?xml version="1.0" standalone="no"?>
<!DOCTYPE svg PUBLIC "-//W3C//DTD SVG 20010904//EN"
 "http://www.w3.org/TR/2001/REC-SVG-20010904/DTD/svg10.dtd">
<svg version="1.0" xmlns="http://www.w3.org/2000/svg"
 width="700.000000pt" height="700.000000pt" viewBox="0 0 700.000000 700.000000"
 preserveAspectRatio="xMidYMid meet">
<metadata>
Created by potrace 1.14, written by Peter Selinger 2001-2017
</metadata>
<g transform="translate(0.000000,700.000000) scale(0.100000,-0.100000)"
fill="#000000" stroke="none">
<path d="M3467 6564 c-1 -1 -72 -4 -157 -8 -85 -3 -168 -8 -185 -10 -16 -2
-57 -7 -90 -11 -33 -3 -71 -8 -85 -10 -347 -54 -595 -119 -885 -232 -901 -353
-1604 -1042 -1902 -1867 -53 -146 -113 -377 -129 -494 -3 -26 -8 -55 -10 -65
-19 -101 -26 -501 -11 -643 67 -629 346 -1211 820 -1707 l29 -30 -11 -91 c-6
-50 -13 -104 -16 -121 -67 -370 -147 -666 -261 -958 -30 -77 -56 -150 -58
-161 -5 -34 14 -74 47 -102 27 -23 37 -25 81 -20 28 3 63 7 79 10 45 10 80 16
117 22 19 3 42 7 50 9 8 2 30 7 49 10 19 3 96 19 170 36 75 16 147 32 161 35
14 2 115 29 225 59 332 90 647 200 882 310 l97 46 111 -27 c60 -14 119 -28
130 -29 35 -6 139 -25 161 -29 12 -2 45 -7 75 -11 30 -3 65 -8 79 -10 14 -2
54 -7 90 -10 301 -27 672 -19 925 20 17 3 48 7 70 10 673 97 1368 415 1865
854 568 502 910 1131 1002 1846 14 109 17 466 5 585 -109 1078 -868 2032
-1987 2497 -268 111 -553 193 -825 238 -55 9 -109 18 -121 20 -11 1 -52 6 -90
10 -38 4 -78 9 -89 11 -26 5 -404 21 -408 18z m288 -448 c66 -5 127 -9 136
-11 9 -2 40 -6 70 -10 73 -8 269 -43 349 -62 36 -8 72 -16 80 -18 68 -16 322
-99 395 -130 142 -61 193 -84 280 -128 688 -348 1219 -962 1406 -1627 7 -25
14 -49 16 -55 12 -40 44 -197 52 -262 19 -146 22 -194 22 -306 0 -526 -177
-1028 -518 -1464 -127 -162 -206 -244 -415 -430 -19 -17 -78 -63 -130 -101
-373 -277 -822 -473 -1297 -568 -115 -22 -159 -30 -246 -40 -33 -3 -67 -8 -76
-9 -124 -23 -628 -22 -760 0 -13 2 -60 9 -104 15 -138 18 -256 41 -394 76 -70
17 -114 22 -170 19 -82 -4 -118 -14 -226 -68 -250 -123 -757 -291 -1086 -361
-15 -3 -15 1 -2 43 24 79 81 322 99 416 9 50 18 99 20 110 2 11 6 36 9 55 9
69 18 125 22 145 2 11 6 63 8 115 5 156 -32 240 -169 385 -332 349 -561 782
-645 1218 -18 93 -22 125 -36 252 -12 105 -6 340 11 465 82 610 396 1165 899
1591 114 96 294 229 311 229 4 0 16 8 27 18 24 21 95 62 257 145 261 135 616
255 895 302 17 2 41 7 55 10 42 8 75 13 136 20 33 4 70 9 84 11 14 2 77 7 140
10 63 4 116 7 117 8 5 4 270 -2 378 -8z"/>
<path d="M1943 4809 c-151 -19 -234 -173 -168 -312 19 -41 84 -99 125 -113 14
-4 729 -9 1590 -9 1482 -2 1568 -1 1615 16 90 33 150 124 144 218 -6 87 -86
182 -165 197 -44 8 -3074 11 -3141 3z"/>
<path d="M1897 3705 c-78 -27 -129 -89 -143 -173 -15 -92 33 -184 117 -226
l50 -24 1587 1 c1522 2 1588 3 1621 20 162 89 157 321 -9 396 -42 19 -86 19
-1614 19 -1267 0 -1578 -2 -1609 -13z"/>
<path d="M1928 2622 c-56 -14 -107 -48 -136 -90 -77 -113 -38 -264 83 -322
l46 -22 922 0 c797 0 927 2 957 15 121 52 171 200 106 312 -27 45 -63 76 -112
96 -22 9 -263 12 -941 13 -502 1 -918 0 -925 -2z"/>
</g>
</svg>
